<?xml version="1.0" encoding="UTF-8"?>
<svg version="1.1" xmlns="http://www.w3.org/2000/svg" width="512" height="512">
<path d="M0 0 C0.89203125 0.69996094 1.7840625 1.39992188 2.703125 2.12109375 C19.57356105 15.56318096 33.88967918 30.92667345 47 48 C36.86343559 71.14515539 10.64592755 90.4398365 -9 105 C-9.59538574 105.44730469 -10.19077148 105.89460937 -10.80419922 106.35546875 C-55.7696773 140.09579862 -111.52767482 163.38021203 -167 172 C-167.74636719 172.11714355 -168.49273437 172.23428711 -169.26171875 172.35498047 C-243.12606955 183.35292474 -321.06304925 153.03684359 -380 110 C-384.77321316 106.46117647 -389.41348417 102.77657391 -394 99 C-394.55429687 98.54866699 -395.10859375 98.09733398 -395.6796875 97.63232422 C-409.69769377 86.17002013 -422.84473601 73.57769558 -433.703125 59.05078125 C-436.04426862 55.94120104 -438.4874589 52.97139169 -441 50 C-439.29171573 46.06226 -436.70773511 42.83985544 -434.0625 39.5 C-433.57450928 38.8827002 -433.08651855 38.26540039 -432.58374023 37.62939453 C-427.67183614 31.48537583 -422.44771677 25.67213353 -417 20 C-416.5138623 19.49194824 -416.02772461 18.98389648 -415.52685547 18.46044922 C-408.74727583 11.41595601 -401.6760204 5.07131307 -394 -1 C-392.926178 -1.89579801 -391.85466677 -2.79437132 -390.78515625 -3.6953125 C-304.1846611 -75.95830167 -191.16873675 -94.21289738 0 0 Z M-266 -36 C-266.7523291 -35.77618652 -267.5046582 -35.55237305 -268.27978516 -35.32177734 C-307.43636003 -23.56338897 -344.6151368 -3.15405266 -376 23 C-376.53625 23.44601563 -377.0725 23.89203125 -377.625 24.3515625 C-392.24814417 35.36956218 -392.24814417 35.36956218 -402 50 C-369.22656577 88.40907768 -322.10383522 114.53366884 -275 131 C-274.16227051 131.29390625 -273.32454102 131.5878125 -272.46142578 131.890625 C-252.86153677 138.66767123 -230.87405181 144.71979489 -210 144 C-210 143.67 -210 143.34 -210 143 C-210.99257812 142.84144531 -211.98515625 142.68289063 -213.0078125 142.51953125 C-231.9501327 139.33547445 -248.32949174 132.61713189 -263 120 C-264.45986328 118.83791016 -264.45986328 118.83791016 -265.94921875 117.65234375 C-282.64700366 103.70973305 -292.18380322 80.33811224 -294.6015625 59.13842773 C-296.88896336 33.5574543 -289.66804929 9.23447901 -274 -11 C-273.37480469 -11.80953125 -272.74960937 -12.6190625 -272.10546875 -13.453125 C-257.06733936 -31.5621987 -234.00982833 -42.12912756 -211 -45 C-211 -45.33 -211 -45.66 -211 -46 C-229.56080734 -46.5758723 -248.38276476 -41.36896365 -266 -36 Z M-191 -46 C-191 -45.67 -191 -45.34 -191 -45 C-190.00742187 -44.84144531 -189.01484375 -44.68289062 -187.9921875 -44.51953125 C-169.25952192 -41.37071576 -152.30407194 -34.83059385 -138 -22 C-137.09378906 -21.18789062 -136.18757813 -20.37578125 -135.25390625 -19.5390625 C-119.93673725 -5.05042276 -108.1875292 16.47945843 -106.82299805 37.76049805 C-106.18450306 69.03148934 -111.77049272 92.71194476 -134 116 C-134.80824219 116.92039062 -134.80824219 116.92039062 -135.6328125 117.859375 C-145.77719536 128.97231703 -160.55936982 135.49794826 -174.6875 139.75 C-175.73901245 140.06662598 -175.73901245 140.06662598 -176.81176758 140.38964844 C-181.53236232 141.74267453 -186.11492441 142.49559264 -191 143 C-191 143.33 -191 143.66 -191 144 C-130.20285669 146.08969773 -57.79947267 109.10713044 -13 70 C-12.17757812 69.28714844 -11.35515625 68.57429688 -10.5078125 67.83984375 C-4.07188948 62.1557809 1.98319486 56.11975428 8 50 C5.85428492 45.22191956 2.42762424 42.0860115 -1.25 38.4375 C-1.96655762 37.72513184 -2.68311523 37.01276367 -3.42138672 36.27880859 C-9.88984272 29.94460626 -16.71043915 24.35060096 -24 19 C-25.08207174 18.18755393 -26.16410326 17.37505428 -27.24609375 16.5625 C-71.65760633 -16.35792191 -134.42075514 -47.01034366 -191 -46 Z M-184.3125 -12.125 C-190.26406255 -3.48145003 -191.00466662 4.52437501 -190 15 C-189.13222356 18.37305191 -187.85520502 21.06403692 -186 24 C-185.57589844 24.69609375 -185.15179688 25.3921875 -184.71484375 26.109375 C-179.38217142 34.01183093 -172.04321079 38.4315511 -162.828125 40.59375 C-154.48815464 41.79175679 -147.28486026 40.07786295 -140 36 C-139.37222656 35.65066406 -138.74445313 35.30132812 -138.09765625 34.94140625 C-131.14592353 30.54523392 -126.74392567 23.25195111 -124.47265625 15.4453125 C-122.55135487 5.50535662 -124.21193982 -2.55223799 -129.28515625 -11.1875 C-134.62953192 -19.04775169 -142.71408331 -24.09882247 -152 -26 C-164.73971706 -27.67791395 -176.41676316 -21.99467105 -184.3125 -12.125 Z " fill="#000000" transform="translate(453,207)"/>
</svg>
