<?xml version="1.0" encoding="UTF-8"?>
<svg version="1.1" xmlns="http://www.w3.org/2000/svg" width="512" height="512">
<path d="M0 0 C5.75070545 3.205011 9.60552611 7.75407834 11.6875 14 C11.8592326 16.05797591 11.95401206 18.12288332 12 20.1875 C12.05607422 21.81751953 12.05607422 21.81751953 12.11328125 23.48046875 C11.18954313 31.11613887 6.9005261 36.37737975 1.54199219 41.59960938 C0.93668671 42.20549896 0.33138123 42.81138855 -0.29226685 43.43563843 C-2.27404451 45.4146532 -4.26955769 47.37915809 -6.265625 49.34375 C-7.65083718 50.72149344 -9.03516262 52.10012895 -10.41864014 53.47961426 C-14.04630379 57.09207163 -17.68582106 60.6923498 -21.32800293 64.29016113 C-25.04886893 67.96996649 -28.75830989 71.66124996 -32.46875 75.3515625 C-39.73891034 82.57894033 -47.02165449 89.79349368 -54.3125 97 C-53.6666395 97.00097681 -53.02077901 97.00195362 -52.35534698 97.00296003 C-14.00037247 97.06134526 24.35454456 97.1352271 62.7094496 97.22898628 C67.32395897 97.24025324 71.93846864 97.25139189 76.55297852 97.26245117 C77.47156996 97.26465486 78.39016141 97.26685854 79.33658896 97.269129 C94.17277134 97.30441537 109.00895368 97.32932825 123.84516235 97.35034702 C139.09029441 97.37217831 154.33537243 97.40529765 169.58045846 97.44870156 C178.97289812 97.47509262 188.36527057 97.49288012 197.75774542 97.49934604 C204.21535232 97.5046386 210.67287496 97.52098355 217.13043656 97.54566566 C220.8453929 97.55954961 224.56019888 97.56890146 228.27518272 97.56500816 C247.66901488 97.54880968 267.34461604 97.68617351 286 103.6875 C287.21598877 104.06551758 287.21598877 104.06551758 288.45654297 104.45117188 C296.65176861 107.11602488 304.17163087 110.82077232 311.6875 115 C313.10289062 115.7734375 313.10289062 115.7734375 314.546875 116.5625 C342.16341403 132.34337945 364.5785085 160.6158346 373.66015625 191.125 C374.00510782 192.4160003 374.34747016 193.70769467 374.6875 195 C374.88069824 195.68449219 375.07389648 196.36898437 375.27294922 197.07421875 C381.33286828 219.11748351 381.08498745 245.07280923 374.6875 267 C374.48382813 267.71575195 374.28015625 268.43150391 374.0703125 269.16894531 C364.21297214 302.68086015 341.15934105 331.01489046 310.78100586 348.01635742 C291.83590692 358.22229656 270.74954116 364.15246064 249.1552887 364.14717102 C248.33400937 364.15084771 247.51273003 364.1545244 246.66656345 364.1583125 C243.93468486 364.16926138 241.20284442 364.17317801 238.47094727 364.17700195 C236.50409833 364.18327296 234.53725055 364.18992032 232.57040405 364.19691467 C226.13157971 364.21787129 219.69275535 364.22830514 213.25390625 364.23828125 C211.03271917 364.24233112 208.81153221 364.24644811 206.59034538 364.25063133 C196.15884937 364.26965987 185.72736035 364.28389911 175.29585034 364.2922433 C163.26759986 364.30202507 151.23953294 364.32837898 139.21134716 364.36874419 C129.90241579 364.39890953 120.59353706 364.41371234 111.28455776 364.41702431 C105.72926507 364.41937309 100.17416904 364.42831243 94.61892891 364.45348549 C89.39446084 364.47678026 84.17031878 364.48099369 78.94581223 364.47072411 C77.03224413 364.47022908 75.11865989 364.47653959 73.20514107 364.49028015 C52.90038597 364.62789211 52.90038597 364.62789211 45.868783 358.38538074 C41.24096125 353.70820331 38.77787431 347.98851951 38.62890625 341.4140625 C39.19139845 333.4434283 41.71233706 328.39222022 47.6875 323 C48.265 322.443125 48.8425 321.88625 49.4375 321.3125 C55.30891925 317.88750544 62.48908483 317.70591893 69.13427734 317.7484436 C69.93443236 317.74547346 70.73458738 317.74250333 71.55898952 317.73944318 C74.21388053 317.73186488 76.86854622 317.7382718 79.5234375 317.74462891 C81.43804574 317.74187598 83.35265284 317.73819425 85.26725769 317.73365784 C89.37920679 317.7255684 93.49110159 317.72337177 97.60305786 317.72560501 C104.11944985 317.72844939 110.63573439 317.7140426 117.15209961 317.69662476 C135.67869448 317.64971007 154.20528192 317.6256743 172.73193359 317.61914062 C182.97285924 317.61537668 193.21366301 317.59723958 203.45453644 317.56404626 C209.91693631 317.54395128 216.37901927 317.54140361 222.84143734 317.55232644 C226.88377581 317.55495467 230.92593414 317.54082699 234.96822548 317.52224541 C236.82520194 317.51697393 238.68221265 317.51833236 240.53917503 317.52728081 C255.41750227 317.59312275 269.99760172 316.12147652 283.5 309.3125 C284.19738281 308.9714624 284.89476562 308.6304248 285.61328125 308.27905273 C305.9094841 298.00270095 319.96892847 280.7770899 327.9453125 259.671875 C335.30283104 237.10881815 334.04820385 213.40339189 323.6875 192 C312.79012644 171.52854305 295.12532659 155.59706605 272.86962891 148.71777344 C265.65444899 146.61144943 258.65173884 144.87390643 251.09221077 144.87695217 C249.4492873 144.8739656 249.4492873 144.8739656 247.77317345 144.87091869 C246.58056558 144.87383153 245.38795771 144.87674437 244.15921021 144.87974548 C242.24654321 144.87846385 242.24654321 144.87846385 240.29523647 144.87715632 C236.76289171 144.87492321 233.23057735 144.87891644 229.69823647 144.88393438 C225.88644539 144.88825569 222.074656 144.88679126 218.26286316 144.8860321 C211.6609672 144.88550794 205.05908113 144.88864357 198.45718765 144.89426994 C188.91197613 144.90239943 179.36676938 144.90500165 169.82155477 144.90625793 C154.33480984 144.90844617 138.84807019 144.91510009 123.36132812 144.92456055 C108.31803412 144.93374056 93.27474155 144.94081851 78.23144531 144.94506836 C76.84037639 144.94546244 76.84037639 144.94546244 75.42120506 144.94586449 C70.76878271 144.94716954 66.11636036 144.94843324 61.463938 144.94967639 C22.87178831 144.96004191 -15.7203555 144.97765403 -54.3125 145 C-53.52989304 145.77372452 -52.74728607 146.54744904 -51.94096375 147.34461975 C-44.55860051 154.6458146 -37.18688408 161.95761059 -29.82539654 169.27985477 C-26.04064876 173.04374876 -22.25227947 176.80383979 -18.45532227 180.55541992 C-14.78959618 184.17761094 -11.13379435 187.80955193 -7.48459816 191.44839287 C-6.09227572 192.83333781 -4.69644345 194.21476363 -3.29703331 195.59254646 C-1.33397438 197.52647106 0.61610807 199.47265646 2.5637207 201.42211914 C3.1420314 201.98604874 3.7203421 202.54997833 4.31617737 203.1309967 C9.38174746 208.24870648 12.10663539 213.42349623 12.1875 220.8125 C11.99091832 227.09525037 10.54829226 231.99164506 6.6875 237 C0.58582427 242.33082345 -4.94643598 244.38697717 -12.96484375 244.19140625 C-29.67224175 242.82923903 -45.26673053 220.2454753 -56.3984375 209.15234375 C-57.40497657 208.14986412 -58.41154447 207.14741344 -59.41814041 206.14499092 C-64.14171002 201.44036738 -68.86293538 196.73340699 -73.58124006 192.02350324 C-78.9920043 186.62253962 -84.41098543 181.22999603 -89.83694494 175.84429926 C-94.06003565 171.65145755 -98.27533596 167.4508836 -102.48498118 163.24454314 C-104.98741757 160.74444244 -107.49296123 158.24766878 -110.0068779 155.75910759 C-112.80793221 152.98586698 -115.59275107 150.19665699 -118.37646484 147.40600586 C-119.19630859 146.59897217 -120.01615234 145.79193848 -120.86083984 144.96044922 C-126.73979016 139.02813693 -132.36253792 132.6426352 -134.07421875 124.27734375 C-134.04972656 123.17519531 -134.02523437 122.07304687 -134 120.9375 C-134.00386719 119.83277344 -134.00773438 118.72804688 -134.01171875 117.58984375 C-132.12834139 107.92043708 -125.37627992 101.49038804 -118.6003418 94.78613281 C-117.61668789 93.79868804 -116.63389305 92.81038688 -115.65188599 91.82130432 C-113.00180194 89.15734938 -110.33943257 86.50600657 -107.67414451 83.85727406 C-104.87554561 81.07260851 -102.0871982 78.27770886 -99.2973175 75.48431396 C-94.61282476 70.79712584 -89.92034278 66.11805553 -85.22290039 61.44384766 C-79.80523866 56.05279909 -74.40012157 50.64942061 -69.00162572 45.23918462 C-63.79046912 40.01722012 -58.57082696 34.80381826 -53.34720802 29.5943222 C-51.13218609 27.38503318 -48.92007629 25.17288893 -46.71030235 22.95835114 C-44.10452769 20.34777699 -41.49134288 17.74484583 -38.87244034 15.14744377 C-37.463996 13.74714734 -36.06280961 12.33956232 -34.66191101 10.93171692 C-24.77079962 1.15537556 -14.17874168 -6.4019167 0 0 Z " fill="#000000" transform="translate(133.3125,75)"/>
</svg>
