<?xml version="1.0" encoding="UTF-8"?>
<svg version="1.1" xmlns="http://www.w3.org/2000/svg" width="512" height="512">
<path d="M0 0 C9.67730533 8.69706104 12.03911982 19.73545397 13.31640625 32.11328125 C15.13973765 48.21116211 20.97451351 60.03353001 33.359375 70.5859375 C44.13137613 78.33851407 57.08302487 81.75429847 70.23046875 80.1640625 C78.02763911 78.86246808 85.28458034 75.84515711 92.2890625 72.2265625 C101.21369558 67.91759017 111.93182405 67.99176033 121.44921875 70.2890625 C146.13115291 79.61194416 160.50939789 112.91888705 170.9375 135.44140625 C176.33387188 147.56642138 180.22917699 160.92676952 175.3125 174.00390625 C170.65038804 183.63893763 163.7667427 189.90046089 155 195.75390625 C144.1603466 203.28738312 136.55032732 214.37726966 133.9375 227.44140625 C131.67707924 240.98198497 134.10166939 254.31758326 141.5390625 265.9453125 C146.68556046 272.88955975 152.85918533 278.08590489 160 282.87890625 C168.22634884 288.54004954 175.05458919 296.36434656 176.9375 306.44140625 C178.29059133 324.34087151 172.1776632 337.92592031 163.9375 353.44140625 C163.54900879 354.1797168 163.16051758 354.91802734 162.76025391 355.67871094 C157.20020395 366.18826036 151.1310203 375.97624796 143.9375 385.44140625 C143.23625 386.39015625 142.535 387.33890625 141.8125 388.31640625 C135.54145325 396.54715511 128.27319273 403.10543529 117.9375 405.44140625 C106.79568584 406.79086384 98.00053825 405.48659798 87.9375 400.44140625 C78.24092387 396.28836811 78.24092387 396.28836811 67.9375 394.44140625 C66.761875 394.35890625 65.58625 394.27640625 64.375 394.19140625 C50.76561842 394.48040856 38.03361083 399.3326591 28.0625 408.62890625 C18.18493037 419.30539696 14.29881187 430.69497738 13.0625 444.81640625 C11.86780558 457.791695 8.03893577 467.72309015 -2.0625 476.44140625 C-22.7813608 491.89885287 -65.00820036 487.64114843 -89.375 484.31640625 C-100.14216495 482.57073029 -110.45054743 478.50536169 -117.0625 469.44140625 C-122.16975336 461.38355872 -124.06973035 453.83367643 -125.0625 444.44140625 C-126.97866837 427.80827467 -132.60908931 415.26714393 -145.484375 404.296875 C-156.25637613 396.54429843 -169.20802487 393.12851403 -182.35546875 394.71875 C-190.15263911 396.02034442 -197.40958034 399.03765539 -204.4140625 402.65625 C-213.33869558 406.96522233 -224.05682405 406.89105217 -233.57421875 404.59375 C-256.70181544 395.85797404 -271.42935052 364.99748932 -281.1328125 343.9375 C-287.07572104 330.58674417 -291.87344553 318.10755843 -288.30859375 303.3125 C-287.37086697 300.90382926 -286.32730859 298.69338252 -285.0625 296.44140625 C-284.505625 295.41015625 -283.94875 294.37890625 -283.375 293.31640625 C-278.73691665 287.55014047 -273.13795616 283.08957199 -267 279.00390625 C-256.1925811 271.56438068 -248.65513354 260.40457394 -246.0625 247.44140625 C-243.80207924 233.90082753 -246.22666939 220.56522924 -253.6640625 208.9375 C-258.65618738 202.20155068 -264.59613187 196.96422632 -271.625 192.44140625 C-280.12578854 186.88151013 -285.39996153 180.34368388 -288.671875 170.6328125 C-291.94003347 152.29844349 -284.43367656 137.20357855 -276.0625 121.44140625 C-275.67400879 120.7030957 -275.28551758 119.96478516 -274.88525391 119.20410156 C-269.32520395 108.69455214 -263.2560203 98.90656454 -256.0625 89.44140625 C-255.36125 88.49265625 -254.66 87.54390625 -253.9375 86.56640625 C-247.66645325 78.33565739 -240.39819273 71.77737721 -230.0625 69.44140625 C-218.92068584 68.09194866 -210.12553825 69.39621452 -200.0625 74.44140625 C-190.36592387 78.59444439 -190.36592387 78.59444439 -180.0625 80.44140625 C-178.886875 80.52390625 -177.71125 80.60640625 -176.5 80.69140625 C-162.89061842 80.40240394 -150.15861083 75.5501534 -140.1875 66.25390625 C-130.30993037 55.57741554 -126.42381187 44.18783512 -125.1875 30.06640625 C-123.99280558 17.0911175 -120.16393577 7.15972235 -110.0625 -1.55859375 C-87.19662884 -18.61783202 -22.45762987 -16.97082257 0 0 Z M-112.75 190.50390625 C-125.33181677 206.69341242 -131.09318605 226.05295569 -129.0625 246.44140625 C-126.39763762 266.28907921 -115.88883799 283.90139492 -100.3125 296.31640625 C-83.25926798 308.31764586 -63.52319082 313.28195097 -42.8515625 309.8203125 C-23.46082692 305.87331695 -6.22395904 294.83607686 4.9375 278.44140625 C15.78789622 260.72391482 20.2699646 240.77694551 15.4375 220.31640625 C10.27004982 201.07498702 -1.12094002 185.03524249 -18.0625 174.44140625 C-50.06493627 156.37420805 -88.46598547 162.91594416 -112.75 190.50390625 Z " fill="#000000" transform="translate(312.0625,18.55859375)"/>
</svg>
