<?xml version="1.0" encoding="UTF-8"?>
<svg version="1.1" xmlns="http://www.w3.org/2000/svg" width="512" height="512">
<path d="M0 0 C2.66686877 1.75088646 5.21541853 3.62608605 7.75 5.5625 C8.43956787 6.08408691 9.12913574 6.60567383 9.83959961 7.14306641 C15.32476286 11.35168026 20.42983443 15.86049563 25.453125 20.60546875 C27.52265535 22.55120818 29.6186913 24.38682958 31.8125 26.1875 C35.63775871 29.43484193 38.76898245 33.17462698 42 37 C42.81339844 37.91394531 43.62679687 38.82789063 44.46484375 39.76953125 C51.1153333 47.30699541 56.7199088 55.30296072 62.17578125 63.73828125 C77.42262565 87.08284676 102.35054987 100.29106618 129.1875 106.25 C142.96235615 108.57037916 156.96277955 108.14548791 170.87988281 108.1418457 C173.28768477 108.14488186 175.69548615 108.14840456 178.10328674 108.15237427 C183.26828321 108.16022815 188.43327288 108.16539485 193.59827423 108.16866493 C201.77840717 108.17419984 209.95849931 108.19113521 218.13861084 108.21000671 C220.94630807 108.21636153 223.7540054 108.22267023 226.56170273 108.22898388 C227.26316172 108.23056764 227.96462072 108.2321514 228.68733604 108.23378316 C236.65044117 108.25167586 244.61354913 108.26792392 252.57666016 108.28295898 C253.30353121 108.28433486 254.03040226 108.28571073 254.77929971 108.28712829 C266.55223108 108.30904816 278.32515168 108.31981433 290.09809986 108.32732973 C302.22480439 108.33542694 314.35141765 108.35879702 326.47807002 108.3952834 C333.27093247 108.41523245 340.06365082 108.42802198 346.85654449 108.42244911 C353.24909331 108.41778115 359.64133905 108.43172528 366.03382683 108.45946121 C368.36812024 108.46633547 370.70244525 108.46654058 373.03673744 108.45926094 C404.16319589 108.37205744 428.58824238 116.87475632 451 139 C469.14099071 157.10949593 478.13194433 181.6752194 478.625 206.9375 C478.66036865 207.94079346 478.6957373 208.94408691 478.73217773 209.9777832 C478.71110332 221.89215559 475.4042224 233.27568158 472.55303192 244.76401901 C471.73588105 248.06786774 470.92978433 251.37439899 470.12235451 254.6806345 C467.46112929 265.57253869 464.76234311 276.45488212 462.05029297 287.33422852 C460.75234929 292.54267633 459.46433014 297.75352721 458.17839813 302.96495152 C457.16983579 307.04429172 456.15379314 311.12174329 455.13581848 315.19874382 C454.65789695 317.11821781 454.18268667 319.03836937 453.710495 320.95926094 C444.65921729 357.7403015 429.06574267 390.429346 395.63671875 410.8671875 C374.30884677 423.53506549 352.93942319 428.48277919 328.45507812 428.38818359 C326.65603825 428.39226039 324.85700088 428.39760841 323.05796814 428.40411377 C318.22115494 428.41766161 313.38453608 428.41254113 308.54771996 428.40297651 C303.45567728 428.3953143 298.36364986 428.40244357 293.27160645 428.40713501 C284.72482352 428.41257362 276.17811869 428.40545093 267.63134766 428.39111328 C257.78831933 428.37479047 247.94547752 428.38008032 238.10245371 428.3965925 C229.61021547 428.41026161 221.11803296 428.41210064 212.62578726 428.40427649 C207.57178795 428.39962966 202.51787594 428.39889188 197.46388245 428.40888596 C192.7095993 428.41763282 187.95555368 428.41139472 183.20129585 428.39420319 C181.46967015 428.39027916 179.73802401 428.39130105 178.00640678 428.39799118 C143.86855762 428.51759531 114.26062393 415.95352742 90 392 C63.56617707 365.60860697 55.87258265 330.69395859 55.84228516 294.5793457 C55.83759801 293.21058495 55.83245146 291.84182571 55.82688904 290.47306824 C55.81574074 287.55789148 55.80724406 284.64272415 55.80076981 281.72753334 C55.78992983 277.09592198 55.7696464 272.46437958 55.74765015 267.83280945 C55.68625333 254.67315852 55.63183957 241.51351453 55.59863281 228.35375977 C55.58015093 221.06056905 55.55105584 213.7674974 55.5106281 206.4743945 C55.48979796 202.63421446 55.47413549 198.79418271 55.47182083 194.95394325 C55.45650373 175.14957573 55.13813016 155.6247698 49.3125 136.5 C49.05758789 135.64237061 48.80267578 134.78474121 48.54003906 133.90112305 C35.75401136 92.12503076 10.76742105 59.90861828 -24.20703125 34.38964844 C-24.91730469 33.86661133 -25.62757812 33.34357422 -26.359375 32.8046875 C-26.99842773 32.33788574 -27.63748047 31.87108398 -28.29589844 31.39013672 C-32.47440953 27.98147738 -33.73594649 24.92249488 -34.4453125 19.7578125 C-34.79496749 12.68870076 -34.32423695 7.40201219 -29.8203125 1.77734375 C-21.20049014 -6.63900641 -9.84180742 -5.83625735 0 0 Z M93 139 C93.13277344 140.05058594 93.26554687 141.10117188 93.40234375 142.18359375 C93.58076312 143.60155823 93.7591466 145.01952722 93.9375 146.4375 C94.02451172 147.12521484 94.11152344 147.81292969 94.20117188 148.52148438 C94.37597136 149.91340616 94.54769638 151.30571773 94.71623898 152.69841099 C94.97106456 154.76530431 95.24557685 156.82974791 95.52259827 158.89378357 C96.22271368 165.27667013 96.16067299 171.66399554 96.17358398 178.07836914 C96.17990188 179.48229167 96.18666901 180.88621223 96.19384766 182.29013062 C96.20843686 185.29872789 96.22019421 188.30731787 96.22979546 191.31593513 C96.24536576 196.08878725 96.26931657 200.86157542 96.29469299 205.63438416 C96.36557667 219.20177139 96.42548722 232.76919502 96.47680664 246.33666992 C96.50526753 253.84143661 96.54073172 261.34613931 96.58346039 268.8508386 C96.6099704 273.57895807 96.62803522 278.30700537 96.63949764 283.03518403 C96.64873763 285.99907145 96.66615048 288.96287241 96.68567657 291.92670822 C96.69650216 293.92023552 96.69789219 295.91380741 96.69880676 297.90736389 C96.90788292 324.34845657 103.42780489 346.80001238 122 366 C141.49928838 384.73710121 166.92980696 388.33969802 192.88867188 388.25878906 C194.39067248 388.26150985 195.89267175 388.26507679 197.39466858 388.26940918 C201.41743657 388.27840639 205.44010019 388.27504219 209.46286964 388.26865101 C213.70828115 388.26352441 217.95368476 388.2683007 222.19909668 388.27142334 C229.32333959 388.27504384 236.44754079 388.27031458 243.57177734 388.26074219 C251.76349274 388.24986136 259.95510851 388.25338831 268.1468215 388.264395 C275.22848397 388.27352288 282.31011677 388.27472647 289.39178324 388.26951766 C293.60014887 388.26642798 297.80846796 388.26590459 302.01683044 388.27259064 C305.97657788 388.27844429 309.9361991 388.27422366 313.89593315 388.26280212 C315.33365611 388.26019777 316.77139002 388.26084635 318.20910835 388.26532745 C325.86473512 388.28695582 333.4051712 387.98175946 341.00866699 387.12054443 C342.03557734 387.00669383 342.03557734 387.00669383 343.08323336 386.89054322 C363.43294939 384.36161069 382.1480711 373.30052688 394.8125 357.3125 C402.06791153 346.90025494 406.82561302 336.60110542 409.99609375 324.34765625 C410.28464737 323.25315659 410.57320099 322.15865692 410.87049866 321.0309906 C411.72421929 317.77865221 412.56982019 314.52438207 413.4119873 311.26904297 C414.04144219 308.84008149 414.67436788 306.41204207 415.30786133 303.98413086 C418.09706369 293.28678393 420.85266334 282.58134979 423.57067108 271.86568451 C424.88706775 266.67768362 426.21217478 261.49225605 427.55786133 256.31176758 C428.88288894 251.20984843 430.18516222 246.10259421 431.4723835 240.99101067 C431.95852708 239.07605607 432.45226694 237.16301006 432.95445061 235.25219917 C438.34415089 214.6982259 439.94208681 195.7485217 428.8046875 176.6875 C419.56722253 162.93127511 406.36562143 153.22702394 390 150 C383.1540787 149.11115609 376.38229649 148.8556534 369.48576355 148.86869812 C368.47523165 148.86658241 367.46469974 148.86446669 366.42354566 148.86228687 C363.06254469 148.85633122 359.70158175 148.85728385 356.34057617 148.8581543 C353.92000261 148.85511974 351.49942962 148.85159746 349.07885742 148.84762573 C343.87616673 148.8397573 338.67348041 148.83457927 333.47078514 148.83133507 C325.22678472 148.82580777 316.98282497 148.80887786 308.73884583 148.78999329 C305.91036899 148.78363753 303.08189204 148.77732889 300.25341511 148.77101612 C299.54662729 148.76943236 298.83983947 148.7678486 298.11163383 148.76621684 C290.07938966 148.74830721 282.04714264 148.73206959 274.01489258 148.71704102 C273.28139303 148.71566514 272.54789349 148.71428927 271.79216669 148.71287171 C259.93121545 148.69098651 248.07027489 148.68019513 236.20930704 148.67267027 C223.99227764 148.66456321 211.77533861 148.64115736 199.55836087 148.6047166 C192.71502449 148.58479222 185.87183067 148.57196853 179.02846336 148.57755089 C172.58095139 148.58223148 166.13373866 148.56820705 159.68628693 148.54053879 C157.33593796 148.53368412 154.98555766 148.53343775 152.63521004 148.54073906 C133.50774956 148.59410082 115.77834446 146.49880914 97.73828125 139.953125 C95.1684285 138.89042346 95.1684285 138.89042346 93 139 Z " fill="#000000" transform="translate(34,4)"/>
<path d="M0 0 C0.81963751 -0.00507454 1.63927503 -0.01014909 2.48375005 -0.0153774 C3.38392741 -0.01587516 4.28410478 -0.01637292 5.21156025 -0.01688576 C6.64639058 -0.02345914 6.64639058 -0.02345914 8.11020738 -0.03016531 C11.32981008 -0.04356755 14.54938539 -0.04973539 17.76900959 -0.0558567 C20.07171471 -0.06375653 22.37441859 -0.07202541 24.67712116 -0.08063698 C32.25176528 -0.10687042 39.82641496 -0.12216575 47.40108967 -0.13642311 C50.00706518 -0.14178221 52.61304064 -0.14715972 55.21901608 -0.15255547 C66.05787388 -0.17418594 76.89672936 -0.1930745 87.73560333 -0.20417786 C90.54800833 -0.2071075 93.36041328 -0.21006917 96.17281818 -0.21308327 C96.87181767 -0.21382932 97.57081715 -0.21457537 98.29099844 -0.21534403 C109.61160115 -0.2279947 120.9320467 -0.26121443 132.25257596 -0.3028851 C143.87828112 -0.34532789 155.50389754 -0.36846809 167.1296795 -0.37409842 C173.65587795 -0.37775439 180.18180997 -0.38980243 186.70793438 -0.42220116 C192.84834649 -0.4522478 198.98833048 -0.45860541 205.12880039 -0.4468174 C207.3814265 -0.44659638 209.63407228 -0.45492435 211.88663006 -0.47247124 C214.96485678 -0.49514293 218.04152852 -0.4868762 221.11976337 -0.47098732 C222.45329901 -0.49181045 222.45329901 -0.49181045 223.81377476 -0.51305425 C231.29014157 -0.41813175 236.11522968 2.26912315 241.35812092 7.51201439 C245.30377957 13.88577067 245.57112266 19.97949928 243.98312092 27.13701439 C241.83189047 32.73873329 238.23746041 36.26864308 233.08561635 39.22640383 C230.81581562 40.20947589 229.30323119 40.38938819 226.84319401 40.39428329 C225.61075116 40.40395663 225.61075116 40.40395663 224.35341048 40.41382539 C223.45614596 40.41072819 222.55888143 40.40763098 221.63442707 40.40443993 C220.1983151 40.4112366 220.1983151 40.4112366 218.73319077 40.41817057 C215.51664743 40.43085728 212.30027249 40.42919143 209.08370686 40.42754173 C206.78085327 40.43352437 204.4780017 40.4403293 202.17515278 40.44789696 C195.91264483 40.46559254 189.65019151 40.47025388 183.38766098 40.47152853 C178.16156315 40.47342606 172.93547808 40.48078203 167.70938516 40.48787272 C156.08353923 40.50323711 144.45771996 40.50920943 132.83186468 40.50786202 C131.78549384 40.50774215 131.78549384 40.50774215 130.7179842 40.50761986 C129.67033323 40.50749722 129.67033323 40.50749722 128.60151759 40.5073721 C117.28746459 40.50655954 105.97354484 40.52568887 94.65953037 40.55389659 C83.03830599 40.58264118 71.41715265 40.5960699 59.795892 40.59470904 C53.27311477 40.59419896 46.75048825 40.59990747 40.2277422 40.62106514 C34.09144935 40.64042498 27.95545129 40.64058712 21.81914806 40.62603188 C19.56814551 40.6239398 17.31712462 40.62866832 15.06615353 40.64075279 C11.99033894 40.65619452 8.9155421 40.64690348 5.83974934 40.63149071 C4.9514077 40.64177783 4.06306606 40.65206496 3.14780498 40.66266382 C-2.69876776 40.59803577 -7.12940591 39.42964518 -12.01687908 36.13701439 C-17.85505125 29.99157 -18.52556776 24.95258145 -18.39578533 16.62920189 C-17.86725141 11.75797174 -16.40762874 8.64255505 -13.01687908 5.13701439 C-8.78972964 1.83983783 -5.36685651 0.01765705 0 0 Z " fill="#000000" transform="translate(189.01687908172607,192.8629856109619)"/>
<path d="M0 0 C4.60107471 4.22227137 7.64946415 9.53505085 8.21875 15.7890625 C8.44997915 23.89097603 7.9784266 30.20339166 2.9453125 36.78515625 C-4.09897 43.60220383 -10.79364123 45.31618685 -20.46875 45.1640625 C-27.04771808 44.46889921 -32.52249211 41.82946597 -36.9921875 36.91015625 C-42.25504701 28.93612668 -43.18257716 22.3615779 -42.0546875 12.78515625 C-40.01080821 6.18185392 -36.79689949 1.57501616 -31.0546875 -2.21484375 C-20.28223553 -7.60106973 -9.85583498 -7.18875418 0 0 Z " fill="#000000" transform="translate(392.0546875,467.21484375)"/>
<path d="M0 0 C4.60107471 4.22227137 7.64946415 9.53505085 8.21875 15.7890625 C8.44997915 23.89097603 7.9784266 30.20339166 2.9453125 36.78515625 C-4.09897 43.60220383 -10.79364123 45.31618685 -20.46875 45.1640625 C-27.04771808 44.46889921 -32.52249211 41.82946597 -36.9921875 36.91015625 C-42.25504701 28.93612668 -43.18257716 22.3615779 -42.0546875 12.78515625 C-40.01080821 6.18185392 -36.79689949 1.57501616 -31.0546875 -2.21484375 C-20.28223553 -7.60106973 -9.85583498 -7.18875418 0 0 Z " fill="#000000" transform="translate(193.0546875,467.21484375)"/>
</svg>
