<?xml version="1.0" encoding="UTF-8"?>
<svg version="1.1" xmlns="http://www.w3.org/2000/svg" width="512" height="512">
<path d="M0 0 C0 142.89 0 285.78 0 433 C-12.21 439.27 -24.42 445.54 -37 452 C-45.02389491 456.37556468 -45.02389491 456.37556468 -53.03125 460.78125 C-61.1020169 465.18348649 -69.31292362 469.31966728 -77.5 473.5 C-88.40755334 479.0696877 -99.26323789 484.69535491 -109.98217773 490.62255859 C-117.77667337 494.9175929 -125.66035218 499.03260674 -133.5625 503.125 C-134.19913574 503.45568481 -134.83577148 503.78636963 -135.49169922 504.1270752 C-137.30687667 505.06920841 -139.12379432 506.00788616 -140.94140625 506.9453125 C-141.99013916 507.48687988 -143.03887207 508.02844727 -144.11938477 508.58642578 C-148.99597167 510.97946233 -152.59074436 512.27767007 -158.0625 512.25 C-159.08472656 512.25515625 -160.10695313 512.2603125 -161.16015625 512.265625 C-164.0268371 511.99748979 -165.6227281 511.58835423 -168 510 C-174.00895173 501.41578325 -173.10401457 493.48136727 -171.42822266 483.55737305 C-171.24600473 482.4293587 -171.06378681 481.30134436 -170.87604713 480.13914776 C-168.83194796 467.64516601 -166.5912383 455.1840143 -164.34343445 442.72535414 C-163.38831211 437.42776822 -162.4448836 432.12819392 -161.50820923 426.82731628 C-161.37040743 426.0474962 -161.23260564 425.26767611 -161.09062803 424.46422511 C-160.52649433 421.27036585 -159.96277038 418.07643446 -159.39933658 414.88245165 C-157.81254108 405.88953496 -156.21392475 396.8990711 -154.58154297 387.91430664 C-153.27138476 380.70263324 -151.98595494 373.48704875 -150.72957861 366.26580447 C-150.06728431 362.46457157 -149.39283709 358.66644924 -148.68806076 354.87284279 C-148.02905454 351.32416908 -147.40303793 347.77123235 -146.80181503 344.21232796 C-146.46877593 342.29288942 -146.10097736 340.37958304 -145.7321167 338.46670532 C-144.59633856 332.44275418 -144.59633856 332.44275418 -146.15454865 326.72189522 C-147.66449134 324.92358179 -149.17889944 323.47560036 -151 322 C-151.90588867 321.13407227 -152.81177734 320.26814453 -153.74511719 319.37597656 C-154.66969727 318.55581055 -155.59427734 317.73564453 -156.546875 316.890625 C-161.01469323 312.87234987 -165.34163724 308.745866 -169.578125 304.484375 C-170.12641968 303.93285767 -170.67471436 303.38134033 -171.23962402 302.81311035 C-172.91169657 301.12732125 -174.581297 299.43912419 -176.25 297.75 C-184.35384332 289.41788872 -184.35384332 289.41788872 -192.921875 281.578125 C-199.99128137 275.5571319 -206.34802795 268.70290605 -212.87304688 262.10644531 C-214.70489754 260.25633381 -216.53988307 258.40937088 -218.375 256.5625 C-219.19411865 255.73093384 -219.19411865 255.73093384 -220.02978516 254.88256836 C-223.54075569 251.34988594 -227.19885835 248.05360152 -230.96447754 244.79507446 C-236.69078398 239.74519334 -242.05691116 234.28969156 -247.48291016 228.92211914 C-248.99526364 227.43142654 -250.51385265 225.94703392 -252.03857422 224.46899414 C-254.26452927 222.31031091 -256.46981722 220.13224357 -258.671875 217.94921875 C-259.34796814 217.30095627 -260.02406128 216.65269379 -260.72064209 215.98478699 C-266.25759967 210.42362004 -269.92917713 204.24937215 -270.0625 196.25 C-268.76598149 192.28417866 -267.31513665 189.51707843 -264 187 C-256.97574507 183.74136183 -249.68779026 182.14077023 -242.07324219 181.00878906 C-241.04261909 180.84867088 -240.011996 180.6885527 -238.95014191 180.52358246 C-235.56778307 180.00597021 -232.18279067 179.50939897 -228.796875 179.015625 C-227.61795433 178.8391468 -226.43903366 178.66266861 -225.22438812 178.48084259 C-208.3436107 175.97130815 -191.56098483 174.33939347 -174.5304451 173.3242054 C-124.61287628 172.67112412 -124.61287628 172.67112412 -81.91503906 151.97412109 C-69.2821321 137.02311748 -63.33230714 117.46894767 -58.27856445 98.89355469 C-55.57996947 88.9797178 -51.29506628 80.13384728 -46.5715332 71.04971313 C-44.80257177 67.6168713 -43.08952867 64.15807354 -41.38671875 60.69213867 C-38.46661567 54.75329419 -35.52672921 48.82477142 -32.57053375 42.90381145 C-30.53901504 38.83471152 -28.51365498 34.76263468 -26.4931345 30.68806267 C-25.17170175 28.02658118 -23.84491592 25.36779517 -22.51664543 22.70972061 C-21.88993209 21.45328993 -21.26519767 20.19586994 -20.64258003 18.93740463 C-19.77856471 17.19225471 -18.90617139 15.45126033 -18.03344727 13.71044922 C-17.54256119 12.72503143 -17.05167511 11.73961365 -16.5459137 10.72433472 C-12.27295591 3.19418134 -8.84151274 0 0 0 Z " fill="#000000" transform="translate(391,0)"/>
</svg>
